<?xml version="1.0" standalone="no"?>
<!DOCTYPE svg PUBLIC "-//W3C//DTD SVG 20010904//EN"
 "http://www.w3.org/TR/2001/REC-SVG-20010904/DTD/svg10.dtd">
<svg version="1.0" xmlns="http://www.w3.org/2000/svg"
 width="642.000000pt" height="234.000000pt" viewBox="0 0 642.000000 234.000000"
 preserveAspectRatio="xMidYMid meet">

<g transform="translate(0.000000,234.000000) scale(0.100000,-0.100000)"
fill="#000000" stroke="none">
<path d="M4973 2010 c-121 -25 -173 -95 -181 -247 l-5 -93 -69 0 -69 0 3 -67
3 -68 68 -3 67 -3 0 -294 0 -295 95 0 95 0 0 295 0 295 130 0 130 0 2 -292 3
-293 93 -3 92 -3 0 295 0 295 82 3 83 3 11 35 c6 19 15 49 18 67 l7 32 -98 3
-98 3 -3 45 c-2 25 1 62 7 82 18 58 78 69 176 32 10 -4 20 14 34 63 20 64 20
69 4 81 -46 33 -206 47 -268 23 -94 -38 -130 -100 -141 -239 l-7 -93 -126 3
-126 3 -3 62 c-4 76 7 98 53 113 30 10 45 9 87 -5 27 -9 52 -14 54 -12 2 2 12
34 21 71 16 59 16 68 3 76 -41 27 -164 43 -227 30z"/>
<path d="M1060 1707 c-108 -24 -174 -79 -206 -169 -14 -39 -13 -44 3 -55 9 -7
31 -13 47 -13 17 0 48 -3 68 -6 36 -6 39 -5 52 27 20 49 49 71 99 76 36 4 48
1 72 -20 25 -21 29 -32 30 -78 l0 -54 -75 -7 c-152 -15 -257 -65 -295 -138
-20 -39 -45 -112 -45 -133 0 -9 4 -25 9 -35 6 -9 12 -29 16 -44 7 -37 62 -98
102 -114 43 -18 165 -18 208 0 19 8 54 30 76 48 33 26 43 30 47 18 7 -20 67
-80 80 -80 18 0 132 100 132 116 0 8 -12 33 -27 56 -28 41 -28 42 -33 257 -5
237 -10 255 -72 301 -66 48 -191 69 -288 47z m170 -454 c0 -112 -46 -183 -119
-183 -113 0 -118 166 -6 216 17 7 51 13 78 14 l47 0 0 -47z"/>
<path d="M2874 1706 c-105 -24 -166 -74 -200 -163 -17 -44 -17 -46 1 -59 10
-8 33 -14 49 -14 17 0 48 -3 68 -6 36 -6 38 -5 53 34 11 28 27 45 50 56 78 38
141 6 152 -77 7 -56 -2 -67 -55 -67 -51 0 -182 -30 -222 -50 -52 -26 -107 -92
-121 -142 -6 -24 -9 -71 -6 -106 9 -119 81 -182 209 -182 81 0 121 13 176 58
l44 35 42 -48 c49 -57 57 -56 136 15 l54 49 -32 62 -32 62 0 191 c0 217 -8
248 -74 303 -65 53 -184 73 -292 49z m174 -468 c-9 -105 -54 -168 -121 -168
-39 0 -56 10 -72 41 -19 36 -19 70 0 115 18 43 79 73 149 74 l49 0 -5 -62z"/>
<path d="M1861 1688 c-26 -13 -52 -36 -65 -57 l-21 -36 -6 43 c-3 24 -12 48
-20 53 -25 15 -136 11 -153 -7 -14 -13 -16 -60 -16 -361 l0 -345 23 6 c12 4
45 11 72 17 108 22 95 -4 96 197 1 219 8 274 39 307 34 36 94 32 124 -8 20
-26 21 -44 24 -243 l4 -215 91 3 92 3 5 210 c5 217 10 244 50 265 30 16 76 12
101 -9 24 -19 24 -21 27 -253 l3 -234 72 -12 c40 -7 82 -15 95 -19 l23 -6 -3
294 c-3 251 -5 298 -20 324 -51 92 -166 130 -263 86 -37 -17 -84 -61 -99 -93
-5 -10 -7 -10 -12 0 -14 31 -71 86 -101 98 -47 20 -112 17 -162 -8z"/>
<path d="M4217 1696 c-139 -52 -217 -186 -217 -375 0 -208 91 -355 241 -391
267 -64 459 233 358 554 -41 133 -143 216 -273 223 -45 2 -85 -2 -109 -11z
m144 -146 c40 -22 53 -68 57 -208 3 -88 0 -148 -8 -177 -35 -126 -156 -128
-191 -4 -14 50 -18 245 -6 301 12 57 51 98 94 98 19 0 43 -5 54 -10z"/>
<path d="M3423 1693 c-9 -3 -13 -27 -13 -68 0 -82 8 -86 143 -85 56 1 106 1
110 1 8 -1 -25 -49 -210 -315 l-84 -119 3 -81 3 -81 270 0 270 0 3 66 c2 46
-1 69 -11 77 -8 7 -71 13 -166 14 l-153 3 162 229 c145 203 164 233 168 276 2
26 -1 57 -7 69 -11 21 -16 21 -244 20 -128 0 -238 -3 -244 -6z"/>
</g>
</svg>
